<?xml version="1.0" encoding="utf-8"?>
<!-- Generator: Adobe Illustrator 16.0.0, SVG Export Plug-In . SVG Version: 6.00 Build 0)  -->
<!DOCTYPE svg PUBLIC "-//W3C//DTD SVG 1.1//EN" "http://www.w3.org/Graphics/SVG/1.1/DTD/svg11.dtd">
<svg version="1.1" id="Layer_1" xmlns="http://www.w3.org/2000/svg" xmlns:xlink="http://www.w3.org/1999/xlink" x="0px" y="0px"
	 width="160px" height="150px" viewBox="0 0 160 150" enable-background="new 0 0 160 150" xml:space="preserve">
<g>
	<linearGradient id="SVGID_1_" gradientUnits="userSpaceOnUse" x1="36.2319" y1="111.7266" x2="123.7684" y2="38.2747">
		<stop  offset="0" style="stop-color:#9D8C35"/>
		<stop  offset="0.2258" style="stop-color:#C9B868"/>
		<stop  offset="0.543" style="stop-color:#87792E"/>
		<stop  offset="0.7097" style="stop-color:#DCD09B"/>
		<stop  offset="0.8441" style="stop-color:#C9B868"/>
		<stop  offset="1" style="stop-color:#9D8C35"/>
	</linearGradient>
	<path fill="url(#SVGID_1_)" d="M80,116.674c-22.82,0-41.406-18.436-41.663-41.195h17.938c2.172,0,3.059-1.538,1.974-3.417
		l-24.53-42.489c-1.086-1.88-2.861-1.88-3.947,0L5.242,72.062c-1.087,1.879-0.199,3.417,1.973,3.417h17.961
		c0.259,30.017,24.747,54.356,54.823,54.356c10.743,0,20.765-3.117,29.235-8.477l-6.585-11.404
		C96.122,114.198,88.348,116.674,80,116.674z M32.544,43.274c0.313-0.184,0.718-0.075,0.898,0.241l13.16,22.793
		c0.184,0.316,0.075,0.719-0.239,0.899c-0.104,0.06-0.217,0.088-0.33,0.088c-0.225,0-0.449-0.117-0.569-0.329L32.303,44.173
		C32.121,43.857,32.229,43.455,32.544,43.274z M152.783,74.521h-17.96C134.563,44.506,110.076,20.165,80,20.165
		c-10.743,0-20.766,3.117-29.235,8.477l6.586,11.403c6.526-4.243,14.3-6.719,22.649-6.719c22.82,0,41.405,18.436,41.662,41.195
		h-17.938c-2.171,0-3.06,1.537-1.974,3.417l24.53,42.49c1.086,1.879,2.862,1.879,3.947,0l24.53-42.49
		C155.845,76.059,154.956,74.521,152.783,74.521z M127.455,106.726c-0.104,0.061-0.218,0.089-0.329,0.089
		c-0.226,0-0.449-0.118-0.569-0.329l-13.159-22.794c-0.185-0.316-0.076-0.718,0.238-0.899c0.314-0.183,0.717-0.074,0.898,0.241
		l13.16,22.794C127.878,106.143,127.77,106.545,127.455,106.726z"/>
</g>
</svg>
