<?xml version="1.0" encoding="utf-8"?>
<!-- Generator: Adobe Illustrator 16.0.0, SVG Export Plug-In . SVG Version: 6.00 Build 0)  -->
<!DOCTYPE svg PUBLIC "-//W3C//DTD SVG 1.1//EN" "http://www.w3.org/Graphics/SVG/1.1/DTD/svg11.dtd">
<svg version="1.1" id="Layer_1" xmlns="http://www.w3.org/2000/svg" xmlns:xlink="http://www.w3.org/1999/xlink" x="0px" y="0px"
	 width="150px" height="150px" viewBox="0 0 150 150" enable-background="new 0 0 150 150" xml:space="preserve">
<g>
	<linearGradient id="SVGID_1_" gradientUnits="userSpaceOnUse" x1="10.9878" y1="124.4248" x2="130.4942" y2="24.147">
		<stop  offset="0" style="stop-color:#9D8C35"/>
		<stop  offset="0.2258" style="stop-color:#C9B868"/>
		<stop  offset="0.543" style="stop-color:#87792E"/>
		<stop  offset="0.7097" style="stop-color:#DCD09B"/>
		<stop  offset="0.8441" style="stop-color:#C9B868"/>
		<stop  offset="1" style="stop-color:#9D8C35"/>
	</linearGradient>
	<path fill="url(#SVGID_1_)" d="M28.364,89.404c1.777,0,3.469-0.366,5.008-1.024v44.133c0,3.731-3.035,6.768-6.767,6.768
		s-6.767-3.036-6.767-6.768V87.812c1.83,1.012,3.93,1.593,6.165,1.593H28.364z M121.028,91.31c-0.539-0.318-1.195-0.547-1.979-0.699
		c-0.772,0.309-1.609,0.489-2.491,0.489c-0.881,0-1.718-0.181-2.49-0.489c-2.128,0.411-3.272,1.44-3.873,3.118h10.833V91.31z
		 M107.493,132.513c0,3.731,3.035,6.768,6.768,6.768c3.731,0,6.768-3.036,6.768-6.768v-10.502h-13.535V132.513z M99.718,52.56
		c0-1.538,0.288-3.008,0.788-4.374l-8.247,6.266l-15.884-5.463c-0.556-0.192-1.132-0.29-1.714-0.29
		c-1.172,0-2.271,0.397-3.163,1.072c0.466,0.589,0.848,1.255,1.103,1.993c0.588,1.71,0.475,3.546-0.318,5.17
		c-0.214,0.438-0.479,0.841-0.771,1.217c0.436,0.328,0.911,0.608,1.443,0.792l18.539,6.378c1.623,0.561,3.518,0.26,4.895-0.787
		l3.33-2.53V52.56z M28.109,38.511c7.662,0,13.896-6.233,13.896-13.896c0-7.661-6.234-13.896-13.896-13.896
		c-7.662,0-13.896,6.234-13.896,13.896C14.213,32.277,20.447,38.511,28.109,38.511z M23.618,48.085
		c-0.244-1.791,0.225-3.57,1.317-5.01c0.57-0.749,1.276-1.348,2.067-1.794h-0.999c-6.22,0-11.278,5.059-11.278,11.278v24.062
		c0,6.22,5.059,11.278,11.278,11.278h2.361c6.219,0,11.279-5.059,11.279-11.278V62.75L26.229,52.558
		C24.79,51.464,23.863,49.877,23.618,48.085z M66.201,48.698c-0.58,0-1.155,0.098-1.71,0.29l-15.883,5.463l-15.1-11.471
		c-0.922-0.702-2.022-1.074-3.18-1.074c-1.663,0-3.191,0.758-4.194,2.08c-0.852,1.119-1.215,2.502-1.025,3.896
		c0.189,1.393,0.912,2.628,2.031,3.478l17.338,13.174c1.376,1.046,3.273,1.345,4.895,0.787l18.539-6.378
		c1.332-0.458,2.403-1.405,3.02-2.669c0.617-1.263,0.704-2.69,0.248-4.019C70.446,50.127,68.446,48.698,66.201,48.698z
		 M112.757,38.511c7.661,0,13.896-6.233,13.896-13.896c0-7.661-6.234-13.896-13.896-13.896c-7.662,0-13.896,6.234-13.896,13.896
		C98.86,32.277,105.095,38.511,112.757,38.511z M126.142,76.621V52.56c0-6.22-5.06-11.278-11.279-11.278h-2.361
		c-6.219,0-11.279,5.059-11.279,11.278v24.062c0,4.583,2.752,8.528,6.688,10.292c0.586-0.466,1.268-0.868,2.019-1.222
		c-0.089-0.439-0.136-0.893-0.136-1.358V50.848c0-3.732,3.035-6.768,6.767-6.768s6.768,3.036,6.768,6.768v33.205
		C125.072,82.064,126.142,79.469,126.142,76.621z M124.493,93.729h3.095c-0.593-2.623-1.931-5.156-4.882-6.604
		c-0.436,0.958-1.098,1.781-1.906,2.439C122.853,90.356,123.938,91.814,124.493,93.729z M112.317,89.563
		c-0.807-0.658-1.469-1.481-1.906-2.439c-2.951,1.448-4.288,3.981-4.881,6.604h3.094C109.179,91.814,110.265,90.356,112.317,89.563z
		 M116.559,45.584c-2.901,0-5.264,2.361-5.264,5.264v33.485c0,2.901,2.362,5.263,5.264,5.263s5.264-2.361,5.264-5.263V50.848
		C121.822,47.945,119.46,45.584,116.559,45.584z M135.787,97.947v19.844c0,1.498-1.218,2.716-2.716,2.716h-33.027
		c-1.497,0-2.715-1.218-2.715-2.716V97.947c0-1.497,1.218-2.715,2.715-2.715h33.027C134.569,95.232,135.787,96.45,135.787,97.947z
		 M130.558,112.963c0-0.416-0.336-0.752-0.752-0.752H104.24c-0.415,0-0.751,0.336-0.751,0.752c0,0.415,0.336,0.752,0.751,0.752
		h25.565C130.222,113.715,130.558,113.378,130.558,112.963z"/>
</g>
</svg>
