<?xml version="1.0" encoding="utf-8"?>
<!-- Generator: Adobe Illustrator 16.0.0, SVG Export Plug-In . SVG Version: 6.00 Build 0)  -->
<!DOCTYPE svg PUBLIC "-//W3C//DTD SVG 1.1//EN" "http://www.w3.org/Graphics/SVG/1.1/DTD/svg11.dtd">
<svg version="1.1" id="Layer_1" xmlns="http://www.w3.org/2000/svg" xmlns:xlink="http://www.w3.org/1999/xlink" x="0px" y="0px"
	 width="150px" height="150px" viewBox="0 0 150 150" enable-background="new 0 0 150 150" xml:space="preserve">
<g>
	<linearGradient id="SVGID_1_" gradientUnits="userSpaceOnUse" x1="25.2871" y1="114.0684" x2="125.3164" y2="30.1338">
		<stop  offset="0" style="stop-color:#9D8C35"/>
		<stop  offset="0.2258" style="stop-color:#C9B868"/>
		<stop  offset="0.543" style="stop-color:#87792E"/>
		<stop  offset="0.7097" style="stop-color:#DCD09B"/>
		<stop  offset="0.8441" style="stop-color:#C9B868"/>
		<stop  offset="1" style="stop-color:#9D8C35"/>
	</linearGradient>
	<path fill="url(#SVGID_1_)" d="M75,38.89c-15.613,0-30.352,8.737-30.352,28.26c0,8.964,3.579,18.641,9.053,25.972
		c6.006,8.036,7.25,14.784,7.038,21.138h8.328l-4.917-31.12c-0.031-0.203,0.023-0.414,0.149-0.576l3.369-4.354
		c0.142-0.185,0.362-0.292,0.594-0.292c0.234,0,0.453,0.107,0.595,0.292l2.771,3.584l2.773-3.584c0.285-0.37,0.906-0.37,1.19,0
		l2.774,3.584l2.773-3.584c0.285-0.37,0.904-0.37,1.188,0l3.369,4.354c0.127,0.162,0.182,0.373,0.148,0.576l-4.916,31.12h8.33
		c-0.211-6.354,1.031-13.102,7.037-21.138c5.475-7.331,9.053-17.008,9.053-25.972C105.35,47.627,90.609,38.89,75,38.89z
		 M68.88,45.409c-0.457,0.119-0.9,0.253-1.341,0.389c-8.036,2.484-13.596,7.881-15.843,15.379c-0.123,0.401-0.241,0.804-0.342,1.219
		c-0.085,0.342-0.392,0.572-0.73,0.572c-0.06,0-0.12-0.007-0.179-0.022c-0.403-0.098-0.65-0.505-0.552-0.909
		c2.232-9.119,8.841-15.541,18.606-18.084c0.406-0.105,0.814,0.139,0.92,0.54C69.524,44.894,69.283,45.304,68.88,45.409z
		 M84.309,83.226l-4.902,31.034h-8.815l-4.903-31.033l2.575-3.328l2.771,3.584c0.143,0.185,0.361,0.292,0.595,0.292
		c0.232,0,0.453-0.107,0.595-0.292l2.774-3.584l2.773,3.584c0.287,0.372,0.906,0.37,1.191,0l2.773-3.584L84.309,83.226z
		 M95.738,119.523v1.154c0,1.359-0.623,2.57-1.582,3.397H55.842c-0.959-0.827-1.581-2.038-1.581-3.397v-1.154
		c0-1.567,0.811-2.951,2.032-3.76h37.412C94.926,116.572,95.738,117.956,95.738,119.523z M95.738,129.339v1.154
		c0,1.361-0.625,2.573-1.586,3.401H55.845c-0.96-0.828-1.584-2.04-1.584-3.401v-1.154c0-1.566,0.811-2.95,2.032-3.76h37.412
		C94.926,126.389,95.738,127.772,95.738,129.339z M95.738,139.158v1.154c0,2.481-2.029,4.512-4.512,4.512H58.772
		c-2.481,0-4.511-2.03-4.511-4.512v-1.154c0-1.567,0.811-2.95,2.032-3.76h37.412C94.926,136.208,95.738,137.591,95.738,139.158z
		 M74.247,25.74V5.928c0-0.416,0.337-0.752,0.752-0.752c0.416,0,0.752,0.336,0.752,0.752V25.74c0,0.416-0.336,0.752-0.752,0.752
		C74.583,26.492,74.247,26.156,74.247,25.74z M39.242,15.711c-0.208-0.36-0.086-0.819,0.274-1.026
		c0.357-0.209,0.82-0.087,1.027,0.274l9.904,17.157c0.209,0.359,0.086,0.819-0.273,1.026c-0.12,0.069-0.248,0.102-0.377,0.102
		c-0.258,0-0.512-0.135-0.65-0.376L39.242,15.711z M14.805,41.923c0.206-0.359,0.668-0.483,1.027-0.274l17.157,9.907
		c0.36,0.207,0.483,0.666,0.274,1.026c-0.138,0.24-0.392,0.376-0.65,0.376c-0.128,0-0.258-0.032-0.376-0.101l-17.157-9.908
		C14.719,42.742,14.596,42.283,14.805,41.923z M28.391,76.895L8.579,76.893c-0.415,0-0.752-0.336-0.752-0.751
		c0-0.416,0.337-0.752,0.752-0.752l19.813,0.001c0.417,0,0.752,0.336,0.752,0.752C29.143,76.558,28.808,76.895,28.391,76.895z
		 M39.589,98.437c0.209,0.36,0.086,0.82-0.274,1.027l-17.159,9.905c-0.119,0.069-0.248,0.101-0.376,0.101
		c-0.259,0-0.513-0.135-0.65-0.375c-0.209-0.36-0.085-0.819,0.274-1.026l17.159-9.906C38.919,97.952,39.382,98.077,39.589,98.437z
		 M99.549,32.117l9.908-17.157c0.209-0.36,0.668-0.481,1.027-0.274s0.482,0.666,0.273,1.026l-9.908,17.158
		c-0.137,0.241-0.393,0.376-0.65,0.376c-0.127,0-0.258-0.032-0.375-0.102C99.463,32.937,99.34,32.477,99.549,32.117z
		 M116.734,52.582c-0.211-0.36-0.086-0.819,0.273-1.026l17.158-9.907c0.359-0.211,0.82-0.087,1.027,0.274
		c0.207,0.36,0.084,0.819-0.275,1.026l-17.158,9.908c-0.119,0.069-0.248,0.101-0.377,0.101
		C117.125,52.958,116.871,52.822,116.734,52.582z M142.174,76.142c0,0.415-0.338,0.751-0.754,0.751l-19.813,0.002
		c-0.416,0-0.752-0.337-0.752-0.752c0-0.416,0.336-0.752,0.752-0.752l19.813-0.001C141.836,75.39,142.174,75.726,142.174,76.142z
		 M128.871,109.095c-0.139,0.24-0.393,0.375-0.652,0.375c-0.127,0-0.256-0.031-0.375-0.101l-17.158-9.905
		c-0.359-0.207-0.484-0.667-0.275-1.027c0.207-0.357,0.668-0.481,1.027-0.274l17.158,9.906
		C128.955,108.275,129.08,108.734,128.871,109.095z"/>
</g>
</svg>
